<svg xmlns="http://www.w3.org/2000/svg" xmlns:xlink="http://www.w3.org/1999/xlink" width="500" zoomAndPan="magnify" viewBox="0 0 375 374.999991" height="500" preserveAspectRatio="xMidYMid meet" version="1.0"><defs><g/><clipPath id="id1"><path d="M 175.664062 81.863281 L 337.5 81.863281 L 337.5 174.921875 L 175.664062 174.921875 Z M 175.664062 81.863281 " clip-rule="nonzero"/></clipPath><clipPath id="id2"><path d="M 232 146 L 253 146 L 253 174.921875 L 232 174.921875 Z M 232 146 " clip-rule="nonzero"/></clipPath><clipPath id="id3"><path d="M 59 121 L 230 121 L 230 209 L 59 209 Z M 59 121 " clip-rule="nonzero"/></clipPath><clipPath id="id4"><path d="M 92.996094 263.304688 L 37.601562 170.089844 L 176.730469 87.414062 L 232.121094 180.628906 Z M 92.996094 263.304688 " clip-rule="nonzero"/></clipPath><clipPath id="id5"><path d="M 92.996094 263.304688 L 37.601562 170.089844 L 176.730469 87.414062 L 232.121094 180.628906 Z M 92.996094 263.304688 " clip-rule="nonzero"/></clipPath></defs><rect x="-37.5" width="450" fill="#ffffff" y="-37.499999" height="449.999989" fill-opacity="1"/><rect x="-37.5" width="450" fill="#ffffff" y="-37.499999" height="449.999989" fill-opacity="1"/><rect x="-37.5" width="450" fill="#006a6a" y="-37.499999" height="449.999989" fill-opacity="1"/><g clip-path="url(#id1)"><path fill="#fffcf6" d="M 175.667969 126.484375 L 337.488281 81.859375 L 287.050781 174.910156 L 240.550781 143.894531 L 337.25 82.015625 L 235.164062 142.847656 L 228.859375 174.125 L 216.515625 139.574219 L 337.234375 82.007812 L 214.28125 137.21875 Z M 175.667969 126.484375 " fill-opacity="1" fill-rule="evenodd"/></g><g clip-path="url(#id2)"><path fill="#fffcf6" d="M 232.003906 174.824219 L 252.808594 155.949219 L 239.433594 146.136719 Z M 232.003906 174.824219 " fill-opacity="1" fill-rule="evenodd"/></g><g clip-path="url(#id3)"><g clip-path="url(#id4)"><g clip-path="url(#id5)"><path fill="#fffcf6" d="M 229.816406 176.753906 C 229.917969 176.921875 229.957031 177.105469 229.9375 177.300781 C 229.917969 177.496094 229.84375 177.664062 229.710938 177.8125 C 229.65625 177.871094 228.375 179.292969 226.011719 181.496094 C 225.832031 181.664062 225.617188 181.746094 225.367188 181.738281 C 225.117188 181.730469 224.910156 181.632812 224.742188 181.453125 C 224.570312 181.273438 224.492188 181.058594 224.5 180.808594 C 224.507812 180.5625 224.605469 180.351562 224.789062 180.183594 C 227.089844 178.039062 228.363281 176.628906 228.375 176.613281 C 228.472656 176.507812 228.585938 176.425781 228.71875 176.375 C 228.851562 176.324219 228.992188 176.304688 229.132812 176.320312 C 229.273438 176.332031 229.40625 176.378906 229.527344 176.453125 C 229.648438 176.53125 229.746094 176.628906 229.816406 176.753906 Z M 222.324219 183.785156 C 222.433594 183.972656 222.472656 184.175781 222.433594 184.394531 C 222.398438 184.609375 222.296875 184.789062 222.128906 184.929688 C 220.8125 186.035156 219.449219 187.125 218.078125 188.164062 C 217.882812 188.316406 217.660156 188.375 217.414062 188.34375 C 217.167969 188.308594 216.96875 188.195312 216.820312 187.996094 C 216.667969 187.800781 216.613281 187.578125 216.644531 187.332031 C 216.679688 187.085938 216.792969 186.886719 216.992188 186.738281 C 218.339844 185.714844 219.679688 184.644531 220.972656 183.558594 C 221.074219 183.472656 221.1875 183.414062 221.3125 183.378906 C 221.441406 183.34375 221.570312 183.335938 221.699219 183.359375 C 221.832031 183.378906 221.949219 183.429688 222.058594 183.503906 C 222.167969 183.578125 222.253906 183.671875 222.324219 183.785156 Z M 214.144531 190 C 214.261719 190.203125 214.296875 190.421875 214.246094 190.652344 C 214.195312 190.882812 214.074219 191.066406 213.875 191.199219 C 212.445312 192.179688 210.980469 193.128906 209.527344 194.019531 C 209.3125 194.148438 209.085938 194.183594 208.847656 194.125 C 208.605469 194.066406 208.421875 193.933594 208.289062 193.722656 L 208.285156 193.710938 C 208.160156 193.5 208.125 193.277344 208.1875 193.039062 C 208.246094 192.800781 208.378906 192.617188 208.589844 192.488281 C 210.019531 191.613281 211.457031 190.683594 212.863281 189.71875 C 213.066406 189.578125 213.292969 189.53125 213.535156 189.578125 C 213.78125 189.621094 213.972656 189.746094 214.113281 189.953125 C 214.121094 189.96875 214.132812 189.984375 214.144531 190 Z M 205.375 195.351562 C 205.382812 195.363281 205.386719 195.375 205.394531 195.386719 C 205.511719 195.605469 205.535156 195.832031 205.464844 196.070312 C 205.390625 196.308594 205.246094 196.484375 205.027344 196.601562 C 203.492188 197.429688 201.929688 198.210938 200.386719 198.925781 C 200.160156 199.027344 199.933594 199.035156 199.703125 198.949219 C 199.472656 198.863281 199.304688 198.707031 199.203125 198.484375 C 199.101562 198.261719 199.089844 198.035156 199.171875 197.804688 C 199.257812 197.574219 199.410156 197.40625 199.628906 197.296875 C 201.144531 196.597656 202.671875 195.832031 204.175781 195.023438 C 204.390625 194.90625 204.609375 194.882812 204.84375 194.945312 C 205.074219 195.007812 205.253906 195.144531 205.375 195.351562 Z M 196.054688 199.664062 C 196.082031 199.707031 196.101562 199.753906 196.121094 199.800781 C 196.210938 200.03125 196.203125 200.261719 196.105469 200.488281 C 196.003906 200.714844 195.839844 200.871094 195.605469 200.960938 C 193.976562 201.59375 192.324219 202.171875 190.699219 202.675781 C 190.460938 202.75 190.230469 202.730469 190.007812 202.617188 C 189.789062 202.503906 189.640625 202.324219 189.566406 202.085938 C 189.492188 201.847656 189.515625 201.621094 189.632812 201.398438 C 189.75 201.179688 189.929688 201.03125 190.167969 200.960938 C 191.753906 200.46875 193.367188 199.90625 194.957031 199.289062 C 195.164062 199.210938 195.367188 199.207031 195.574219 199.277344 C 195.78125 199.347656 195.941406 199.476562 196.054688 199.664062 Z M 186.25 202.699219 C 186.320312 202.820312 186.363281 202.953125 186.371094 203.097656 C 186.382812 203.238281 186.359375 203.378906 186.300781 203.507812 C 186.246094 203.640625 186.160156 203.753906 186.050781 203.84375 C 185.941406 203.9375 185.816406 204 185.675781 204.03125 C 183.972656 204.421875 182.25 204.746094 180.558594 204.996094 C 180.3125 205.039062 180.085938 204.984375 179.882812 204.835938 C 179.679688 204.6875 179.558594 204.488281 179.523438 204.242188 C 179.488281 203.992188 179.546875 203.769531 179.699219 203.566406 C 179.851562 203.367188 180.050781 203.25 180.300781 203.21875 C 181.945312 202.980469 183.617188 202.664062 185.277344 202.28125 C 185.464844 202.238281 185.652344 202.253906 185.828125 202.332031 C 186.007812 202.410156 186.148438 202.53125 186.246094 202.699219 Z M 143.070312 135 C 143.082031 135.019531 143.09375 135.039062 143.105469 135.0625 L 143.183594 135.222656 C 143.941406 136.792969 144.453125 138.4375 144.71875 140.160156 C 144.757812 140.40625 144.703125 140.628906 144.558594 140.828125 C 144.410156 141.027344 144.214844 141.148438 143.96875 141.1875 C 143.722656 141.222656 143.5 141.171875 143.300781 141.023438 C 143.101562 140.878906 142.980469 140.683594 142.941406 140.4375 C 142.703125 138.890625 142.242188 137.410156 141.5625 136 L 141.492188 135.855469 C 141.382812 135.636719 141.367188 135.414062 141.441406 135.183594 C 141.511719 134.953125 141.65625 134.78125 141.867188 134.667969 C 142.082031 134.550781 142.304688 134.527344 142.535156 134.589844 C 142.769531 134.65625 142.949219 134.789062 143.070312 135 Z M 140.445312 130.605469 C 140.566406 130.8125 140.601562 131.03125 140.546875 131.265625 C 140.492188 131.496094 140.367188 131.679688 140.164062 131.8125 C 139.964844 131.945312 139.746094 131.988281 139.511719 131.945312 C 139.273438 131.902344 139.085938 131.785156 138.945312 131.589844 C 137.980469 130.253906 136.882812 129.03125 135.65625 127.921875 C 135.46875 127.757812 135.367188 127.550781 135.351562 127.300781 C 135.339844 127.054688 135.414062 126.835938 135.582031 126.648438 C 135.75 126.460938 135.957031 126.363281 136.207031 126.351562 C 136.457031 126.339844 136.671875 126.417969 136.859375 126.585938 C 138.179688 127.777344 139.359375 129.09375 140.398438 130.535156 C 140.414062 130.558594 140.429688 130.582031 140.445312 130.605469 Z M 132.832031 123.875 C 132.933594 124.046875 132.976562 124.234375 132.953125 124.433594 C 132.929688 124.632812 132.851562 124.804688 132.710938 124.949219 C 132.574219 125.097656 132.40625 125.1875 132.207031 125.21875 C 132.011719 125.253906 131.824219 125.222656 131.644531 125.132812 C 130.195312 124.375 128.667969 123.839844 127.0625 123.523438 C 126.820312 123.476562 126.632812 123.347656 126.496094 123.144531 C 126.359375 122.9375 126.3125 122.714844 126.359375 122.472656 C 126.40625 122.230469 126.535156 122.042969 126.738281 121.902344 C 126.941406 121.761719 127.164062 121.714844 127.410156 121.761719 C 129.183594 122.109375 130.871094 122.703125 132.476562 123.539062 C 132.625 123.617188 132.746094 123.730469 132.832031 123.875 Z M 144.644531 144.933594 C 144.75 145.109375 144.789062 145.300781 144.761719 145.503906 C 144.527344 147.265625 144.105469 148.984375 143.503906 150.65625 C 143.421875 150.890625 143.269531 151.058594 143.046875 151.167969 C 142.820312 151.273438 142.59375 151.285156 142.359375 151.203125 C 142.125 151.121094 141.957031 150.96875 141.847656 150.746094 C 141.742188 150.523438 141.730469 150.296875 141.8125 150.0625 C 142.371094 148.507812 142.757812 146.914062 142.980469 145.277344 C 143.003906 145.089844 143.082031 144.921875 143.210938 144.78125 C 143.34375 144.640625 143.5 144.550781 143.691406 144.511719 C 143.878906 144.472656 144.058594 144.492188 144.234375 144.570312 C 144.410156 144.644531 144.546875 144.765625 144.644531 144.933594 Z M 176.097656 204.179688 C 176.179688 204.316406 176.21875 204.460938 176.222656 204.617188 C 176.226562 204.773438 176.191406 204.921875 176.117188 205.058594 C 176.042969 205.199219 175.941406 205.308594 175.808594 205.394531 C 175.679688 205.480469 175.535156 205.527344 175.378906 205.535156 C 173.640625 205.640625 171.886719 205.671875 170.167969 205.625 C 169.921875 205.613281 169.71875 205.515625 169.550781 205.335938 C 169.382812 205.160156 169.304688 204.945312 169.3125 204.703125 C 169.320312 204.457031 169.410156 204.25 169.589844 204.078125 C 169.765625 203.910156 169.976562 203.828125 170.21875 203.828125 C 171.886719 203.875 173.585938 203.847656 175.273438 203.742188 C 175.636719 203.722656 175.910156 203.867188 176.097656 204.179688 Z M 122.902344 122 C 122.976562 122.128906 123.019531 122.269531 123.023438 122.421875 C 123.03125 122.574219 123 122.71875 122.933594 122.851562 C 122.867188 122.988281 122.769531 123.101562 122.648438 123.1875 C 122.523438 123.277344 122.386719 123.332031 122.234375 123.347656 C 120.621094 123.542969 119.078125 123.996094 117.609375 124.703125 C 117.386719 124.804688 117.160156 124.816406 116.925781 124.734375 C 116.695312 124.652344 116.527344 124.5 116.417969 124.28125 C 116.3125 124.058594 116.300781 123.832031 116.378906 123.597656 C 116.460938 123.363281 116.613281 123.191406 116.832031 123.085938 C 118.476562 122.292969 120.207031 121.785156 122.019531 121.566406 C 122.40625 121.519531 122.703125 121.664062 122.902344 122 Z M 141.339844 154.585938 C 141.515625 154.875 141.519531 155.167969 141.363281 155.464844 C 140.535156 157.003906 139.625 158.496094 138.636719 159.9375 C 138.496094 160.140625 138.304688 160.265625 138.0625 160.3125 C 137.816406 160.359375 137.59375 160.3125 137.390625 160.171875 C 137.183594 160.035156 137.058594 159.84375 137.011719 159.597656 C 136.964844 159.355469 137.011719 159.132812 137.152344 158.925781 C 138.105469 157.539062 138.980469 156.105469 139.777344 154.625 C 139.941406 154.316406 140.199219 154.15625 140.546875 154.148438 C 140.898438 154.140625 141.164062 154.285156 141.34375 154.585938 Z M 165.851562 203.894531 C 166.042969 204.214844 166.035156 204.527344 165.832031 204.839844 C 165.628906 205.152344 165.339844 205.285156 164.972656 205.242188 C 163.257812 205.039062 161.527344 204.753906 159.832031 204.390625 C 159.582031 204.34375 159.390625 204.214844 159.253906 204.007812 C 159.113281 203.796875 159.070312 203.570312 159.125 203.324219 C 159.175781 203.078125 159.308594 202.886719 159.519531 202.753906 C 159.734375 202.617188 159.960938 202.578125 160.207031 202.636719 C 161.847656 202.984375 163.523438 203.261719 165.1875 203.460938 C 165.480469 203.496094 165.703125 203.640625 165.851562 203.894531 Z M 113.8125 126.378906 C 113.917969 126.554688 113.957031 126.746094 113.933594 126.953125 C 113.90625 127.15625 113.816406 127.332031 113.671875 127.476562 C 112.507812 128.625 111.546875 129.917969 110.785156 131.363281 C 110.667969 131.578125 110.492188 131.726562 110.253906 131.796875 C 110.015625 131.871094 109.789062 131.847656 109.570312 131.734375 C 109.351562 131.617188 109.203125 131.441406 109.132812 131.203125 C 109.058594 130.96875 109.082031 130.738281 109.199219 130.519531 C 110.046875 128.914062 111.117188 127.472656 112.410156 126.195312 C 112.511719 126.101562 112.625 126.03125 112.753906 125.984375 C 112.886719 125.941406 113.019531 125.929688 113.15625 125.945312 C 113.292969 125.964844 113.421875 126.011719 113.535156 126.085938 C 113.652344 126.160156 113.742188 126.257812 113.8125 126.378906 Z M 135.589844 163.09375 C 135.6875 163.253906 135.726562 163.429688 135.714844 163.613281 C 135.699219 163.800781 135.636719 163.96875 135.515625 164.117188 C 134.472656 165.40625 133.328125 166.730469 132.117188 168.050781 C 131.953125 168.242188 131.742188 168.34375 131.488281 168.359375 C 131.238281 168.375 131.019531 168.296875 130.832031 168.125 C 130.644531 167.953125 130.550781 167.742188 130.542969 167.492188 C 130.535156 167.238281 130.617188 167.023438 130.792969 166.839844 C 131.980469 165.546875 133.097656 164.25 134.121094 162.988281 C 134.210938 162.875 134.328125 162.789062 134.460938 162.730469 C 134.597656 162.671875 134.738281 162.644531 134.882812 162.65625 C 135.03125 162.667969 135.167969 162.710938 135.292969 162.789062 C 135.417969 162.863281 135.515625 162.964844 135.589844 163.09375 Z M 155.828125 201.765625 C 155.925781 201.925781 155.96875 202.097656 155.953125 202.285156 C 155.941406 202.46875 155.878906 202.636719 155.761719 202.78125 C 155.648438 202.925781 155.5 203.027344 155.324219 203.082031 C 155.144531 203.136719 154.96875 203.140625 154.789062 203.082031 C 153.152344 202.578125 151.503906 201.992188 149.890625 201.339844 C 149.660156 201.246094 149.5 201.085938 149.40625 200.859375 C 149.3125 200.628906 149.308594 200.402344 149.402344 200.175781 C 149.496094 199.945312 149.65625 199.78125 149.882812 199.6875 C 150.109375 199.589844 150.335938 199.585938 150.566406 199.675781 C 152.132812 200.308594 153.734375 200.878906 155.324219 201.367188 C 155.542969 201.433594 155.710938 201.566406 155.828125 201.765625 Z M 146.332031 197.933594 C 146.433594 198.105469 146.472656 198.289062 146.453125 198.488281 C 146.429688 198.6875 146.351562 198.859375 146.214844 199.003906 C 146.078125 199.152344 145.914062 199.242188 145.71875 199.277344 C 145.519531 199.3125 145.332031 199.285156 145.15625 199.195312 C 143.632812 198.433594 142.101562 197.589844 140.605469 196.691406 C 140.390625 196.566406 140.25 196.382812 140.1875 196.140625 C 140.125 195.898438 140.160156 195.671875 140.289062 195.457031 C 140.417969 195.242188 140.605469 195.105469 140.847656 195.042969 C 141.09375 194.984375 141.320312 195.023438 141.53125 195.152344 C 142.992188 196.027344 144.480469 196.847656 145.960938 197.589844 C 146.121094 197.667969 146.242188 197.785156 146.332031 197.933594 Z M 108.996094 135.28125 C 109.117188 135.488281 109.152344 135.707031 109.097656 135.941406 C 108.738281 137.550781 108.550781 139.183594 108.539062 140.832031 C 108.542969 141.085938 108.453125 141.296875 108.277344 141.476562 C 108.097656 141.652344 107.882812 141.742188 107.632812 141.738281 C 107.382812 141.738281 107.167969 141.644531 106.996094 141.464844 C 106.820312 141.285156 106.738281 141.070312 106.742188 140.820312 C 106.753906 139.039062 106.957031 137.277344 107.34375 135.539062 C 107.386719 135.363281 107.472656 135.210938 107.609375 135.082031 C 107.742188 134.957031 107.902344 134.882812 108.082031 134.851562 C 108.265625 134.824219 108.4375 134.847656 108.605469 134.925781 C 108.769531 135.003906 108.898438 135.121094 108.992188 135.28125 Z M 128.648438 170.6875 C 128.753906 170.863281 128.792969 171.054688 128.769531 171.257812 C 128.742188 171.464844 128.65625 171.640625 128.507812 171.785156 C 127.3125 172.957031 126.042969 174.15625 124.734375 175.339844 C 124.550781 175.511719 124.332031 175.589844 124.082031 175.578125 C 123.832031 175.570312 123.625 175.472656 123.457031 175.285156 C 123.289062 175.101562 123.210938 174.882812 123.226562 174.632812 C 123.242188 174.382812 123.339844 174.175781 123.527344 174.011719 C 124.820312 172.84375 126.070312 171.664062 127.246094 170.507812 C 127.421875 170.332031 127.636719 170.246094 127.882812 170.246094 C 128.132812 170.25 128.34375 170.339844 128.515625 170.515625 C 128.566406 170.566406 128.613281 170.625 128.648438 170.6875 Z M 137.542969 192.675781 C 137.648438 192.859375 137.6875 193.054688 137.660156 193.261719 C 137.628906 193.472656 137.535156 193.648438 137.382812 193.792969 C 137.226562 193.9375 137.042969 194.015625 136.832031 194.03125 C 136.621094 194.046875 136.429688 193.992188 136.253906 193.871094 C 135.351562 193.242188 134.4375 192.578125 133.546875 191.898438 C 133.539062 191.890625 133.527344 191.882812 133.515625 191.875 C 133.496094 191.855469 132.992188 191.433594 132.125 190.621094 C 131.949219 190.453125 131.855469 190.242188 131.851562 190 C 131.84375 189.753906 131.925781 189.539062 132.09375 189.359375 C 132.261719 189.179688 132.46875 189.085938 132.714844 189.078125 C 132.960938 189.066406 133.175781 189.144531 133.355469 189.3125 C 134.101562 190.011719 134.570312 190.410156 134.65625 190.484375 C 135.523438 191.140625 136.40625 191.785156 137.285156 192.398438 C 137.390625 192.472656 137.476562 192.566406 137.542969 192.675781 Z M 108.816406 145.472656 C 108.875 145.570312 108.914062 145.675781 108.929688 145.789062 C 109.039062 146.457031 109.171875 147.144531 109.324219 147.832031 C 109.539062 148.785156 109.777344 149.753906 110.03125 150.699219 C 110.09375 150.941406 110.0625 151.167969 109.9375 151.382812 C 109.8125 151.59375 109.632812 151.734375 109.394531 151.800781 C 109.152344 151.863281 108.925781 151.832031 108.710938 151.710938 C 108.496094 151.585938 108.355469 151.40625 108.292969 151.164062 C 108.03125 150.195312 107.789062 149.203125 107.570312 148.226562 C 107.410156 147.5 107.269531 146.777344 107.15625 146.074219 C 107.121094 145.863281 107.160156 145.664062 107.269531 145.476562 C 107.378906 145.289062 107.535156 145.160156 107.738281 145.085938 C 107.941406 145.011719 108.144531 145.011719 108.347656 145.085938 C 108.550781 145.15625 108.707031 145.285156 108.816406 145.472656 Z M 129.90625 185.863281 C 130.023438 186.0625 130.058594 186.273438 130.015625 186.5 C 129.96875 186.722656 129.855469 186.90625 129.671875 187.042969 C 129.484375 187.179688 129.277344 187.238281 129.050781 187.21875 C 128.820312 187.195312 128.628906 187.101562 128.472656 186.933594 C 127.320312 185.6875 126.171875 184.375 125.0625 183.03125 C 124.902344 182.839844 124.835938 182.621094 124.859375 182.371094 C 124.878906 182.121094 124.988281 181.917969 125.183594 181.761719 C 125.375 181.601562 125.59375 181.535156 125.84375 181.558594 C 126.09375 181.585938 126.296875 181.695312 126.453125 181.886719 C 127.539062 183.207031 128.664062 184.492188 129.792969 185.710938 C 129.835938 185.757812 129.875 185.808594 129.90625 185.863281 Z M 111.429688 155.378906 C 111.460938 155.433594 111.488281 155.488281 111.507812 155.546875 C 112.050781 157.128906 112.65625 158.722656 113.308594 160.285156 C 113.402344 160.511719 113.402344 160.742188 113.308594 160.972656 C 113.214844 161.203125 113.054688 161.363281 112.824219 161.460938 C 112.59375 161.554688 112.367188 161.558594 112.136719 161.464844 C 111.90625 161.371094 111.746094 161.207031 111.648438 160.980469 C 110.980469 159.378906 110.359375 157.75 109.808594 156.132812 C 109.730469 155.914062 109.738281 155.699219 109.832031 155.488281 C 109.921875 155.277344 110.070312 155.121094 110.28125 155.023438 C 110.488281 154.925781 110.703125 154.914062 110.921875 154.980469 C 111.144531 155.050781 111.3125 155.183594 111.429688 155.378906 Z M 123.382812 177.953125 C 123.503906 178.160156 123.539062 178.378906 123.484375 178.613281 C 123.429688 178.847656 123.304688 179.03125 123.105469 179.164062 C 122.902344 179.292969 122.683594 179.339844 122.449219 179.296875 C 122.214844 179.253906 122.023438 179.136719 121.882812 178.945312 C 121.632812 178.601562 121.382812 178.257812 121.136719 177.914062 C 121.191406 178.25 121.089844 178.527344 120.828125 178.746094 C 119.53125 179.835938 118.179688 180.933594 116.808594 182.011719 C 116.613281 182.164062 116.390625 182.226562 116.144531 182.199219 C 115.898438 182.171875 115.699219 182.058594 115.542969 181.863281 C 115.390625 181.667969 115.328125 181.445312 115.359375 181.199219 C 115.390625 180.953125 115.503906 180.753906 115.699219 180.601562 C 117.054688 179.535156 118.390625 178.449219 119.671875 177.371094 C 119.8125 177.253906 119.976562 177.183594 120.160156 177.164062 C 120.347656 177.148438 120.519531 177.183594 120.683594 177.273438 C 120.082031 176.417969 119.5 175.550781 118.9375 174.6875 C 118.796875 174.480469 118.753906 174.253906 118.804688 174.007812 C 118.859375 173.765625 118.988281 173.574219 119.195312 173.441406 C 119.40625 173.304688 119.632812 173.261719 119.875 173.3125 C 120.117188 173.367188 120.308594 173.496094 120.441406 173.707031 C 121.359375 175.113281 122.328125 176.515625 123.332031 177.882812 C 123.351562 177.90625 123.367188 177.929688 123.378906 177.953125 Z M 115.378906 164.835938 C 115.390625 164.855469 115.402344 164.875 115.410156 164.898438 C 116.152344 166.394531 116.953125 167.902344 117.796875 169.375 C 117.917969 169.589844 117.945312 169.816406 117.878906 170.054688 C 117.816406 170.296875 117.675781 170.476562 117.460938 170.597656 C 117.242188 170.722656 117.015625 170.75 116.777344 170.6875 C 116.539062 170.621094 116.355469 170.484375 116.234375 170.269531 C 115.375 168.761719 114.554688 167.222656 113.796875 165.695312 C 113.691406 165.480469 113.675781 165.257812 113.746094 165.027344 C 113.820312 164.796875 113.964844 164.621094 114.175781 164.507812 C 114.386719 164.390625 114.609375 164.367188 114.84375 164.429688 C 115.074219 164.492188 115.253906 164.628906 115.375 164.835938 Z M 112.925781 183.96875 C 113.046875 184.167969 113.082031 184.378906 113.035156 184.605469 C 112.988281 184.832031 112.871094 185.011719 112.6875 185.148438 C 111.265625 186.195312 109.84375 187.210938 108.464844 188.160156 C 108.261719 188.296875 108.039062 188.34375 107.796875 188.300781 C 107.554688 188.253906 107.363281 188.128906 107.222656 187.925781 C 107.082031 187.722656 107.035156 187.5 107.078125 187.257812 C 107.121094 187.015625 107.246094 186.824219 107.445312 186.683594 C 108.8125 185.742188 110.214844 184.742188 111.621094 183.703125 C 111.726562 183.628906 111.839844 183.578125 111.960938 183.550781 C 112.085938 183.523438 112.210938 183.523438 112.335938 183.546875 C 112.457031 183.570312 112.574219 183.621094 112.675781 183.695312 C 112.78125 183.769531 112.863281 183.859375 112.929688 183.96875 Z M 104.433594 189.828125 C 104.558594 190.039062 104.589844 190.261719 104.535156 190.496094 C 104.476562 190.734375 104.347656 190.917969 104.140625 191.046875 C 103.578125 191.402344 102.972656 191.777344 102.335938 192.152344 C 101.492188 192.65625 100.59375 193.167969 99.664062 193.679688 C 99.445312 193.796875 99.21875 193.824219 98.980469 193.753906 C 98.742188 193.6875 98.566406 193.542969 98.445312 193.324219 C 98.324219 193.109375 98.300781 192.882812 98.371094 192.644531 C 98.4375 192.40625 98.582031 192.226562 98.800781 192.105469 C 99.710938 191.605469 100.59375 191.101562 101.417969 190.609375 C 102.039062 190.242188 102.632812 189.878906 103.179688 189.53125 C 103.386719 189.398438 103.613281 189.359375 103.855469 189.410156 C 104.097656 189.464844 104.285156 189.597656 104.417969 189.804688 Z M 95.449219 194.804688 C 95.460938 194.824219 95.472656 194.84375 95.480469 194.867188 C 95.589844 195.085938 95.605469 195.316406 95.527344 195.550781 C 95.445312 195.785156 95.292969 195.957031 95.070312 196.066406 C 93.5625 196.8125 91.988281 197.550781 90.390625 198.265625 C 90.164062 198.363281 89.933594 198.371094 89.703125 198.28125 C 89.472656 198.195312 89.304688 198.035156 89.207031 197.8125 C 89.105469 197.585938 89.097656 197.355469 89.1875 197.125 C 89.277344 196.894531 89.433594 196.726562 89.660156 196.625 C 91.234375 195.921875 92.789062 195.191406 94.277344 194.457031 C 94.488281 194.355469 94.707031 194.335938 94.929688 194.402344 C 95.15625 194.46875 95.328125 194.601562 95.449219 194.800781 Z M 86.070312 199 C 86.136719 199.109375 86.179688 199.230469 86.191406 199.363281 C 86.207031 199.492188 86.191406 199.621094 86.152344 199.742188 C 86.109375 199.867188 86.042969 199.976562 85.953125 200.074219 C 85.863281 200.167969 85.757812 200.242188 85.636719 200.289062 C 84.066406 200.929688 82.445312 201.558594 80.820312 202.160156 C 80.589844 202.246094 80.359375 202.238281 80.132812 202.132812 C 79.910156 202.03125 79.753906 201.863281 79.667969 201.628906 C 79.582031 201.398438 79.589844 201.167969 79.695312 200.941406 C 79.796875 200.71875 79.96875 200.5625 80.199219 200.476562 C 81.804688 199.878906 83.410156 199.257812 84.960938 198.628906 C 85.167969 198.542969 85.375 198.535156 85.585938 198.605469 C 85.796875 198.675781 85.957031 198.808594 86.070312 198.996094 Z M 76.441406 202.570312 C 76.472656 202.625 76.5 202.679688 76.519531 202.742188 C 76.597656 202.976562 76.582031 203.207031 76.472656 203.425781 C 76.363281 203.648438 76.191406 203.800781 75.953125 203.878906 C 74.34375 204.421875 72.6875 204.957031 71.042969 205.460938 C 70.804688 205.53125 70.578125 205.503906 70.363281 205.390625 C 70.148438 205.273438 70.003906 205.097656 69.933594 204.863281 C 69.859375 204.628906 69.882812 204.402344 69.996094 204.183594 C 70.109375 203.964844 70.28125 203.820312 70.515625 203.746094 C 72.148438 203.246094 73.785156 202.71875 75.382812 202.179688 C 75.582031 202.109375 75.78125 202.113281 75.980469 202.1875 C 76.179688 202.261719 76.332031 202.386719 76.441406 202.570312 Z M 66.621094 205.582031 C 66.691406 205.703125 66.734375 205.832031 66.746094 205.972656 C 66.753906 206.113281 66.734375 206.246094 66.683594 206.375 C 66.628906 206.507812 66.550781 206.617188 66.445312 206.710938 C 66.34375 206.804688 66.222656 206.871094 66.085938 206.90625 C 64.445312 207.363281 62.769531 207.804688 61.101562 208.222656 C 60.984375 208.257812 60.863281 208.269531 60.742188 208.253906 C 60.621094 208.238281 60.507812 208.199219 60.402344 208.140625 C 60.296875 208.078125 60.207031 208 60.132812 207.902344 C 60.058594 207.804688 60.007812 207.699219 59.976562 207.578125 C 59.949219 207.460938 59.945312 207.34375 59.964844 207.222656 C 59.980469 207.101562 60.023438 206.988281 60.089844 206.886719 C 60.152344 206.78125 60.238281 206.695312 60.335938 206.625 C 60.4375 206.554688 60.546875 206.507812 60.667969 206.484375 C 62.320312 206.070312 63.984375 205.628906 65.609375 205.179688 C 65.804688 205.125 65.996094 205.132812 66.183594 205.210938 C 66.371094 205.285156 66.519531 205.410156 66.621094 205.582031 Z M 66.621094 205.582031 " fill-opacity="1" fill-rule="nonzero"/></g></g></g><g fill="#fffcf6" fill-opacity="1"><g transform="translate(93.495791, 283.910345)"><g><path d="M 10.921875 -4.078125 C 14.546875 -4.078125 16.359375 -5.523438 16.359375 -8.421875 C 16.359375 -9.929688 15.554688 -11.050781 13.953125 -11.78125 C 13.109375 -12.207031 12.015625 -12.597656 10.671875 -12.953125 C 9.328125 -13.316406 8.207031 -13.6875 7.3125 -14.0625 C 6.425781 -14.445312 5.53125 -14.96875 4.625 -15.625 C 2.84375 -16.957031 1.953125 -19.003906 1.953125 -21.765625 C 1.953125 -24.535156 2.910156 -26.710938 4.828125 -28.296875 C 6.742188 -29.878906 9.25 -30.671875 12.34375 -30.671875 C 15.4375 -30.671875 18.316406 -30.050781 20.984375 -28.8125 L 20.984375 -22.015625 L 16.359375 -21.703125 L 16.359375 -24.328125 C 16.359375 -24.785156 16.296875 -25.117188 16.171875 -25.328125 C 15.835938 -25.898438 14.769531 -26.1875 12.96875 -26.1875 C 11.175781 -26.1875 9.847656 -25.867188 8.984375 -25.234375 C 8.128906 -24.597656 7.703125 -23.617188 7.703125 -22.296875 C 7.703125 -21.328125 8.066406 -20.476562 8.796875 -19.75 C 9.273438 -19.269531 9.988281 -18.867188 10.9375 -18.546875 C 11.894531 -18.234375 12.910156 -17.910156 13.984375 -17.578125 C 15.054688 -17.242188 16.003906 -16.878906 16.828125 -16.484375 C 17.660156 -16.097656 18.53125 -15.554688 19.4375 -14.859375 C 21.28125 -13.503906 22.203125 -11.40625 22.203125 -8.5625 C 22.203125 -5.71875 21.179688 -3.476562 19.140625 -1.84375 C 17.097656 -0.21875 14.410156 0.59375 11.078125 0.59375 C 7.742188 0.59375 4.742188 -0.0234375 2.078125 -1.265625 L 2.078125 -8.421875 L 6.703125 -8.75 L 6.703125 -5.984375 C 6.703125 -5.523438 6.757812 -5.191406 6.875 -4.984375 C 7 -4.773438 7.367188 -4.570312 7.984375 -4.375 C 8.609375 -4.175781 9.585938 -4.078125 10.921875 -4.078125 Z M 10.921875 -4.078125 "/></g></g></g><g fill="#fffcf6" fill-opacity="1"><g transform="translate(117.143154, 283.910345)"><g><path d="M 9.875 -5.078125 L 9.875 -25.640625 L 6.34375 -25.640625 C 5.644531 -25.640625 5.296875 -25.171875 5.296875 -24.234375 L 5.296875 -22.109375 L 0.671875 -22.421875 L 0.671875 -30.125 L 24.375 -30.125 L 24.375 -22.421875 L 19.75 -22.109375 L 19.75 -24.234375 C 19.75 -24.753906 19.671875 -25.117188 19.515625 -25.328125 C 19.367188 -25.535156 19.007812 -25.640625 18.4375 -25.640625 L 15.359375 -25.640625 L 15.359375 -3.984375 L 18.9375 -3.84375 L 18.9375 0 L 6.15625 0 L 6.15625 -3.671875 L 8.5625 -3.8125 C 9.4375 -3.894531 9.875 -4.316406 9.875 -5.078125 Z M 9.875 -5.078125 "/></g></g></g><g fill="#fffcf6" fill-opacity="1"><g transform="translate(142.194858, 283.910345)"><g><path d="M 3.078125 -5.078125 L 10.375 -26.1875 L 7.515625 -26.46875 L 7.515625 -30.125 L 17.890625 -30.125 L 27.140625 -3.984375 L 27.1875 -3.984375 L 29.765625 -3.84375 L 29.765625 0 L 18.078125 0 L 18.078125 -3.671875 L 19.796875 -3.8125 C 20.316406 -3.863281 20.664062 -3.976562 20.84375 -4.15625 C 21.019531 -4.34375 21.035156 -4.679688 20.890625 -5.171875 L 19.9375 -7.96875 L 9.328125 -7.96875 L 7.96875 -3.984375 L 10.6875 -3.84375 L 10.6875 0 L 0.21875 0 L 0.21875 -3.671875 L 1.71875 -3.8125 C 2.351562 -3.863281 2.804688 -4.285156 3.078125 -5.078125 Z M 14.640625 -25.0625 L 10.421875 -12.140625 L 18.84375 -12.140625 L 14.765625 -25.0625 Z M 14.640625 -25.0625 "/></g></g></g><g fill="#fffcf6" fill-opacity="1"><g transform="translate(172.184428, 283.910345)"><g><path d="M 1.453125 0 L 1.453125 -3.671875 L 2.9375 -3.8125 C 3.820312 -3.894531 4.265625 -4.316406 4.265625 -5.078125 L 4.265625 -26.140625 L 1.671875 -26.28125 L 1.671875 -30.125 L 14.046875 -30.125 C 17.546875 -30.125 20.234375 -29.472656 22.109375 -28.171875 C 23.984375 -26.878906 24.921875 -24.753906 24.921875 -21.796875 C 24.921875 -19.742188 24.382812 -18.050781 23.3125 -16.71875 C 22.238281 -15.382812 20.960938 -14.414062 19.484375 -13.8125 C 20.566406 -13.425781 21.425781 -12.507812 22.0625 -11.0625 L 25.328125 -3.9375 L 27.90625 -3.84375 L 27.90625 0 L 16.71875 0 L 16.71875 -3.671875 L 18.03125 -3.8125 C 18.726562 -3.894531 19.078125 -4.164062 19.078125 -4.625 C 19.078125 -4.800781 19.015625 -5.007812 18.890625 -5.25 L 16.765625 -9.78125 C 16.429688 -10.539062 16.0625 -11.078125 15.65625 -11.390625 C 15.25 -11.710938 14.664062 -11.875 13.90625 -11.875 L 9.78125 -11.875 L 9.78125 -3.984375 L 12.734375 -3.84375 L 12.734375 0 Z M 9.78125 -16.171875 L 13.734375 -16.171875 C 17.441406 -16.171875 19.296875 -17.832031 19.296875 -21.15625 C 19.296875 -23.0625 18.804688 -24.300781 17.828125 -24.875 C 16.847656 -25.445312 15.269531 -25.734375 13.09375 -25.734375 L 9.78125 -25.734375 Z M 9.78125 -16.171875 "/></g></g></g><g fill="#fffcf6" fill-opacity="1"><g transform="translate(200.543139, 283.910345)"><g><path d="M 9.875 -5.078125 L 9.875 -25.640625 L 6.34375 -25.640625 C 5.644531 -25.640625 5.296875 -25.171875 5.296875 -24.234375 L 5.296875 -22.109375 L 0.671875 -22.421875 L 0.671875 -30.125 L 24.375 -30.125 L 24.375 -22.421875 L 19.75 -22.109375 L 19.75 -24.234375 C 19.75 -24.753906 19.671875 -25.117188 19.515625 -25.328125 C 19.367188 -25.535156 19.007812 -25.640625 18.4375 -25.640625 L 15.359375 -25.640625 L 15.359375 -3.984375 L 18.9375 -3.84375 L 18.9375 0 L 6.15625 0 L 6.15625 -3.671875 L 8.5625 -3.8125 C 9.4375 -3.894531 9.875 -4.316406 9.875 -5.078125 Z M 9.875 -5.078125 "/></g></g></g><g fill="#fffcf6" fill-opacity="1"><g transform="translate(225.594843, 283.910345)"><g><path d="M 10.0625 -5.078125 L 10.0625 -11.515625 L 2.359375 -26.140625 L 0.21875 -26.28125 L 0.21875 -30.125 L 11.28125 -30.125 L 11.28125 -26.46875 L 9.921875 -26.328125 C 9.441406 -26.296875 9.132812 -26.113281 9 -25.78125 C 8.863281 -25.445312 8.914062 -25.039062 9.15625 -24.5625 L 13 -16.671875 L 13.1875 -16.671875 L 18.125 -26.09375 L 15.859375 -26.28125 L 15.859375 -30.125 L 25.59375 -30.125 L 25.59375 -26.46875 L 24.234375 -26.328125 C 23.660156 -26.265625 23.148438 -25.8125 22.703125 -24.96875 L 15.59375 -11.515625 L 15.59375 -3.984375 L 19.125 -3.84375 L 19.125 0 L 6.34375 0 L 6.34375 -3.671875 L 8.75 -3.8125 C 9.625 -3.863281 10.0625 -4.285156 10.0625 -5.078125 Z M 10.0625 -5.078125 "/></g></g></g><g fill="#fffcf6" fill-opacity="1"><g transform="translate(251.416674, 283.910345)"><g><path d="M 15.65625 -30.671875 C 19.238281 -30.671875 22.238281 -29.398438 24.65625 -26.859375 C 27.070312 -24.328125 28.28125 -20.457031 28.28125 -15.25 C 28.28125 -10.039062 27.078125 -6.097656 24.671875 -3.421875 C 22.265625 -0.742188 19.015625 0.59375 14.921875 0.59375 C 10.835938 0.59375 7.628906 -0.734375 5.296875 -3.390625 C 2.972656 -6.054688 1.8125 -9.925781 1.8125 -15 C 1.8125 -17.78125 2.21875 -20.21875 3.03125 -22.3125 C 3.851562 -24.414062 4.925781 -26.039062 6.25 -27.1875 C 8.9375 -29.507812 12.070312 -30.671875 15.65625 -30.671875 Z M 7.46875 -15.21875 C 7.46875 -7.726562 10.066406 -3.984375 15.265625 -3.984375 C 18.046875 -3.984375 19.992188 -5.132812 21.109375 -7.4375 C 22.140625 -9.457031 22.65625 -11.929688 22.65625 -14.859375 C 22.65625 -17.484375 22.203125 -19.898438 21.296875 -22.109375 C 20.785156 -23.316406 20.007812 -24.269531 18.96875 -24.96875 C 17.925781 -25.664062 16.570312 -26.015625 14.90625 -26.015625 C 13.25 -26.015625 11.820312 -25.46875 10.625 -24.375 C 9.425781 -23.289062 8.597656 -21.976562 8.140625 -20.4375 C 7.691406 -18.894531 7.46875 -17.15625 7.46875 -15.21875 Z M 7.46875 -15.21875 "/></g></g></g></svg>